<svg width="281" height="201" viewBox="0 0 281 201" fill="none" xmlns="http://www.w3.org/2000/svg">
<g clip-path="url(#clip0_4_37)">
<path d="M86.5892 80.4973C75.9579 99.7403 65.5145 118.638 54.9235 137.802H99.0683C98.1829 139.448 97.472 140.821 96.7174 142.162C95.8052 143.784 95.2015 145.968 93.8198 146.823C92.4984 147.638 90.3487 147.087 88.5645 147.087C72.9161 147.093 57.2678 147.09 41.6194 147.09C41.0157 147.09 40.4087 147.09 39.4663 147.09C55.2186 118.583 70.8368 90.3258 86.5892 61.8223C102.308 90.2677 117.883 118.45 133.655 146.998C143.441 129.295 153.043 111.92 162.815 94.234C164.549 97.3824 166.206 100.308 167.749 103.296C167.92 103.625 167.511 104.347 167.249 104.815C156.618 124.086 145.973 143.346 135.329 162.61C134.815 163.537 134.306 164.465 133.645 165.662C117.936 137.234 102.355 109.032 86.5858 80.4938L86.5892 80.4973Z" fill="white"/>
<path d="M186.691 37.5074C169.868 67.9514 153.221 98.0771 136.405 128.507C134.681 125.383 133.058 122.553 131.583 119.647C131.368 119.223 131.717 118.361 132.012 117.82C138.639 105.76 145.296 93.7172 151.95 81.671C163.154 61.3945 174.362 41.1179 185.574 20.8413C185.896 20.2595 186.245 19.6948 186.717 18.8872C210.659 62.2192 234.484 105.342 258.463 148.743C257.739 148.743 257.269 148.743 256.796 148.743C239.921 148.743 223.045 148.729 206.169 148.767C205.025 148.767 204.368 148.452 203.828 147.395C202.527 144.838 201.095 142.354 199.508 139.462H243.009C224.148 105.318 205.505 71.5755 186.687 37.5074H186.691Z" fill="white"/>
<path d="M105.172 85.8393C103.472 82.7593 101.909 80.0694 100.517 77.2872C100.256 76.7601 100.484 75.7711 100.809 75.1791C108.563 61.0385 116.36 46.9219 124.157 32.8019C129.899 22.4018 135.647 12.0017 141.395 1.60502C141.664 1.12248 141.956 0.65022 142.338 0C142.643 0.451732 142.874 0.742619 143.052 1.06773C150.595 14.6915 158.124 28.3222 165.686 41.9357C166.189 42.8426 166.209 43.551 165.693 44.4408C164.197 47.0211 162.775 49.6426 161.182 52.5001C154.897 41.1418 148.727 29.9922 142.371 18.5107C129.902 41.0768 117.621 63.3074 105.172 85.8393Z" fill="white"/>
<path d="M205.26 157.398C206.749 157.398 208.151 157.271 209.506 157.47C209.969 157.538 210.525 158.37 210.68 158.948C213.282 168.698 215.828 178.461 218.386 188.222C218.608 189.06 218.816 189.902 219.302 190.682V157.528H223.015V200.326C221.626 200.326 220.271 200.48 218.987 200.251C218.477 200.158 217.89 199.275 217.722 198.646C215.64 190.874 213.624 183.081 211.602 175.292C210.78 172.123 209.985 168.948 208.926 165.813V200.213H205.26V157.401V157.398Z" fill="white"/>
<path d="M194.263 178.79C194.263 182.66 194.314 186.531 194.236 190.398C194.21 191.805 193.998 193.235 193.663 194.601C192.452 199.549 188.683 201.216 184.266 200.938C179.484 200.637 176.459 197.557 176.381 192.865C176.234 183.714 176.217 174.553 176.371 165.402C176.455 160.32 179.785 157.025 184.517 156.751C189.739 156.45 193.257 159.003 193.884 164.317C194.408 168.753 194.173 173.28 194.273 177.767C194.28 178.109 194.273 178.451 194.273 178.79H194.267H194.263ZM180.523 178.728H180.533C180.533 182.825 180.453 186.921 180.563 191.011C180.624 193.245 180.996 195.525 183.337 196.606C186.516 198.077 189.642 195.935 189.726 192.075C189.887 184.857 189.897 177.637 189.93 170.416C189.94 168.657 189.88 166.887 189.712 165.139C189.461 162.504 187.764 160.793 185.467 160.69C182.935 160.577 181.412 161.836 180.855 164.605C180.667 165.543 180.547 166.511 180.537 167.466C180.5 171.22 180.523 174.974 180.523 178.725V178.728Z" fill="white"/>
<path d="M27.061 178.8C27.061 174.587 26.9403 170.371 27.0879 166.165C27.3327 159.167 32.0513 155.533 38.742 157.066C42.2097 157.86 43.9369 160.382 44.6814 163.705C44.9631 164.968 45.057 166.295 45.0637 167.593C45.0972 175.104 45.1006 182.619 45.057 190.131C45.0469 191.538 44.9161 192.985 44.5774 194.344C43.2997 199.477 39.8084 201.158 35.187 200.945C30.1733 200.716 27.4467 197.636 27.1147 192.287C26.9738 190.018 27.0241 187.736 27.0107 185.46C26.9973 183.239 27.0107 181.021 27.0107 178.8C27.0275 178.8 27.0476 178.8 27.0644 178.8H27.061ZM31.3202 178.677C31.3202 182.544 31.2699 186.411 31.3504 190.278C31.3772 191.562 31.5952 192.889 31.9809 194.111C32.6081 196.086 34.2212 197.082 36.23 197.006C38.2523 196.931 39.6072 195.969 40.174 193.947C40.5228 192.705 40.7408 191.38 40.7508 190.094C40.8045 182.589 40.8045 175.08 40.7508 167.575C40.7408 166.289 40.5228 164.961 40.1505 163.729C39.52 161.631 37.984 160.649 35.8343 160.697C33.8221 160.741 32.38 161.812 31.8166 163.897C31.5114 165.033 31.3571 166.241 31.3404 167.421C31.2833 171.172 31.3202 174.926 31.3202 178.68V178.677Z" fill="white"/>
<path d="M251.139 168.472H247.191C247.141 167.329 247.154 166.21 247.037 165.104C246.638 161.384 243.422 159.526 240.444 161.278C238.659 162.329 238.287 164.225 238.267 166.008C238.17 174.553 238.197 183.098 238.257 191.644C238.264 192.687 238.626 193.772 239.012 194.761C239.608 196.284 240.843 197.016 242.439 197.044C244.005 197.068 245.337 196.5 246.034 195.011C246.484 194.049 246.926 192.975 246.956 191.938C247.067 188.31 247 184.679 247 180.874H242.55V176.935C245.246 176.935 248.013 176.911 250.776 176.976C251.011 176.983 251.43 177.592 251.43 177.921C251.447 185.21 251.417 192.499 251.39 199.792C251.39 199.895 251.303 199.997 251.206 200.213H248.234C248.07 199.296 247.906 198.368 247.795 197.739C246.4 198.7 245.112 200.114 243.549 200.576C238.519 202.064 234.259 199.001 234.115 193.485C233.86 183.933 233.797 174.358 234.125 164.81C234.357 158.085 241.906 154.372 247.57 157.901C248.613 158.551 249.509 159.632 250.156 160.71C251.303 162.616 251.611 165.891 251.142 168.472H251.139Z" fill="white"/>
<path d="M108.013 157.487H112.098V175.217C115.022 175.217 117.742 175.265 120.458 175.149C120.75 175.135 121.23 174.18 121.236 173.66C121.297 168.934 121.273 164.204 121.273 159.478C121.273 158.866 121.273 158.25 121.273 157.514H125.439V200.206H121.273C121.273 199.504 121.273 198.841 121.273 198.177C121.273 192.424 121.243 186.671 121.293 180.918C121.307 179.608 120.955 179.084 119.59 179.142C117.198 179.245 114.804 179.17 112.218 179.17V200.199H108.013V157.483V157.487Z" fill="white"/>
<path d="M55.7787 157.49H59.8199C59.8199 158.178 59.8199 158.835 59.8199 159.492C59.8199 169.851 59.8099 180.214 59.8401 190.573C59.8401 191.64 59.9641 192.739 60.2391 193.766C60.8462 196.041 62.6538 197.191 64.9444 196.914C67.1511 196.644 68.5597 195.179 68.6703 192.821C68.7844 190.436 68.771 188.044 68.7743 185.655C68.7911 177.058 68.781 168.465 68.8079 159.869C68.8146 157.384 68.8582 157.384 71.2795 157.387C71.8329 157.387 72.3863 157.387 73.2113 157.387C73.2113 158.099 73.2113 158.698 73.2113 159.297C73.2113 169.656 73.228 180.019 73.1945 190.378C73.1911 191.729 73.0503 193.108 72.7652 194.429C71.6551 199.539 67.9191 201.305 63.3849 200.915C58.3913 200.487 55.7519 197.667 55.6815 192.547C55.5205 181.052 55.6177 169.55 55.6177 158.051C55.6177 157.894 55.7083 157.737 55.7821 157.487L55.7787 157.49Z" fill="white"/>
<path d="M273.793 157.387C276.201 171.737 278.575 185.874 281 200.319C279.568 200.319 278.364 200.391 277.177 200.271C276.855 200.237 276.389 199.665 276.321 199.279C275.698 195.531 275.107 191.777 274.598 188.013C274.453 186.952 274.081 186.521 273.011 186.572C271.506 186.644 269.99 186.675 268.487 186.565C267.25 186.476 266.851 186.976 266.693 188.167C266.173 192.157 265.549 196.134 264.952 200.216H260.66C261.112 197.359 261.562 194.529 262.011 191.702C263.752 180.778 265.499 169.854 267.216 158.924C267.381 157.877 267.716 157.292 268.9 157.367C270.452 157.463 272.012 157.391 273.786 157.391L273.793 157.387ZM270.768 161.819C270.674 161.823 270.583 161.826 270.489 161.829C269.537 168.636 268.588 175.446 267.629 182.315H273.689C272.699 175.374 271.734 168.595 270.768 161.819Z" fill="white"/>
<path d="M16.943 168.133H12.7341C12.5966 166.716 12.4792 165.371 12.3316 164.03C12.1002 161.901 11.1008 160.789 9.27975 160.604C7.16357 160.385 6.04008 161.206 5.3861 163.448C4.10499 167.849 5.23183 171.565 8.72974 174.43C10.0343 175.501 11.3725 176.531 12.6703 177.609C16.9195 181.134 17.8585 185.908 17.4292 191.127C17.3018 192.694 16.9832 194.282 16.5003 195.774C15.132 199.99 11.2484 201.369 7.67333 200.911C2.67631 200.271 0.640615 197.872 0.211341 192.698C0.100669 191.36 0.0671318 190.015 -0.0032959 188.663C0.456161 188.567 0.664091 188.495 0.878728 188.481C4.06474 188.28 4.0245 188.283 4.35652 191.503C4.47054 192.615 4.69189 193.758 5.10775 194.785C5.82879 196.578 7.08643 197.198 9.14896 197.112C10.9465 197.037 12.1908 196.072 12.5798 194.381C13.7838 189.135 13.5423 184.06 8.91084 180.487C7.75382 179.594 6.66386 178.612 5.51019 177.712C2.14307 175.09 0.6272 171.538 0.71775 167.319C0.757995 165.467 1.05647 163.561 1.58301 161.788C2.67296 158.123 5.38946 156.525 9.6822 156.734C13.2807 156.905 15.6216 158.838 16.3594 162.497C16.7216 164.297 16.7484 166.169 16.9396 168.126L16.943 168.133Z" fill="white"/>
<path d="M162.426 168.756C162.252 166.942 162.235 165.221 161.897 163.571C161.494 161.621 160.294 160.751 158.462 160.693C156.534 160.632 155.253 161.46 154.7 163.386C154.361 164.574 154.166 165.844 154.16 167.079C154.113 174.652 154.106 182.226 154.16 189.799C154.17 191.206 154.384 192.646 154.74 194.005C155.276 196.072 156.789 197.116 158.677 196.993C160.558 196.869 161.856 195.644 162.182 193.481C162.433 191.804 162.517 190.104 162.688 188.293H166.706C166.954 191.216 166.816 194.026 165.7 196.698C164.227 200.227 160.294 201.394 157.124 200.884C152.127 200.079 149.991 197.413 149.89 191.514C149.743 182.975 149.82 174.43 149.88 165.888C149.89 164.605 150.192 163.28 150.591 162.055C151.819 158.27 155.176 156.323 159.499 156.758C163.57 157.168 165.867 159.554 166.438 163.975C166.488 164.369 166.511 164.769 166.521 165.166C166.642 169.095 167.625 169.283 162.423 168.749L162.426 168.756Z" fill="white"/>
<path d="M88.246 161.388H81.5386V157.497H99.2461V161.333H92.5924V200.25H88.246V161.388Z" fill="white"/>
</g>
<defs>
<clipPath id="clip0_4_37">
<rect width="281" height="201" fill="white"/>
</clipPath>
</defs>
</svg>
